<svg width="156" height="156" viewBox="0 0 156 156" fill="none" xmlns="http://www.w3.org/2000/svg">
<g id="Frame" clip-path="url(#clip0_1025_1912)">
<path id="Vector" d="M148 0H8C3.58172 0 0 3.58172 0 8V148C0 152.418 3.58172 156 8 156H148C152.418 156 156 152.418 156 148V8C156 3.58172 152.418 0 148 0Z" fill="#101426"/>
<g id="Group" filter="url(#filter0_d_1025_1912)">
<path id="Vector_2" d="M78.0002 144.383C114.662 144.383 144.383 114.662 144.383 78.0002C144.383 41.3379 114.662 11.6172 78.0002 11.6172C41.3379 11.6172 11.6172 41.3379 11.6172 78.0002C11.6172 114.662 41.3379 144.383 78.0002 144.383Z" fill="#151A30"/>
</g>
<g id="Group_2" filter="url(#filter1_d_1025_1912)">
<path id="Vector_3" d="M50.9734 59.416L39.2734 79.7735L100.042 140.536C109.906 137.061 118.811 131.304 126.028 123.734C133.246 116.165 138.573 106.997 141.575 96.978L104.013 59.416L97.915 62.9564L104.099 73.716L96.598 66.212L95.674 66.7486L94.258 67.5701L92.836 68.3888L92.75 68.4386C93.046 68.7235 93.317 69.0471 93.589 69.3624C93.705 69.5007 93.832 69.6252 93.945 69.7662C94.291 70.2088 94.617 70.679 94.905 71.1824L98.26 77.0213C98.298 77.086 98.33 77.1535 98.357 77.2232C98.6 77.6603 98.805 78.1084 98.99 78.5564L90.936 70.502C89.329 68.8853 87.191 67.9048 84.9173 67.7415C83.0917 67.6115 81.2026 68.0181 79.4822 69.0167L78.2568 69.7358H78.2513L76.6526 70.6652L74.6251 68.6377C73.1876 68.0016 71.6198 67.7153 70.0503 67.8024C67.9328 67.9461 65.9269 68.8042 64.3607 70.2364L57.0779 62.9564L50.9734 59.416Z" fill="#222B45"/>
</g>
<g id="Group_3" filter="url(#filter2_d_1025_1912)">
<path id="Vector_4" d="M50.9764 59.4126L57.0808 62.9531L45.3808 83.3075L39.2764 79.7673L50.9764 59.4126ZM104.016 59.4126L115.716 79.77L109.62 83.3075L97.92 62.9501L104.016 59.4126ZM58.3947 66.2086L60.7402 67.5639L62.2421 68.4404C61.3961 69.2457 60.6696 70.1681 60.0847 71.1791L56.7296 77.0179C56.1619 78.0393 55.7428 79.1364 55.4849 80.2761L53.9498 79.3912L51.6042 78.0274L58.3947 66.2086ZM96.601 66.2086L103.397 78.0301L102.462 78.5697L101.046 79.3912L99.63 80.2127L99.56 80.2569C99.295 79.1963 98.891 78.1752 98.36 77.2198C98.333 77.151 98.301 77.0843 98.263 77.0206L94.908 71.1818C94.322 70.169 93.596 69.2441 92.751 68.435L92.839 68.3854L94.261 67.5666L95.677 66.7452L96.601 66.2086ZM84.9202 67.7382C86.7457 67.8682 88.51 68.5347 89.993 69.6715C90.98 70.4294 91.843 71.3974 92.51 72.5563L95.865 78.3951C97.082 80.5166 97.4 82.876 96.966 85.078C96.717 84.8288 96.44 84.5992 96.125 84.4139L84.8068 77.8505C84.8787 77.0041 84.7238 76.1384 84.3089 75.3445C84.2875 75.2859 84.2625 75.2286 84.2342 75.173C84.2232 75.1454 84.2121 75.1344 84.2011 75.1122C84.1955 75.1122 84.19 75.1122 84.1845 75.0846C84.1518 75.0351 84.1158 74.9879 84.0766 74.9434C83.7828 74.4696 83.404 74.0542 82.9591 73.7181H82.9536C82.1935 73.1735 81.2919 72.8605 80.3578 72.8173C79.4237 72.7741 78.4971 73.0025 77.69 73.4747C77.6706 73.4747 77.654 73.5022 77.6347 73.5078L71.3864 77.1313C71.3199 77.1711 71.257 77.2163 71.1983 77.2667L71.0323 77.3636C69.6383 78.1713 67.9898 77.6321 66.6815 76.451L70.3657 74.3073L78.2515 69.735H78.257L79.4851 69.0158C81.1277 68.0549 83.0218 67.6117 84.9202 67.7436V67.7382ZM70.0532 67.7989C71.623 67.7126 73.1908 67.9998 74.6281 68.637L72.8579 69.6603L72.7389 69.738L68.9772 71.9202L63.6721 75.0042C63.3552 75.1876 63.124 75.4893 63.0291 75.8429C62.9342 76.1965 62.9834 76.5732 63.1659 76.8906C65.0828 80.2263 69.2179 81.6148 72.4181 79.7589L78.6111 76.1633C78.6304 76.1633 78.647 76.1354 78.6664 76.1326L79.0813 75.8672C80.0715 75.2919 81.164 75.5711 81.7172 76.3926C81.4319 76.431 81.1657 76.5576 80.9556 76.7545C80.7456 76.9515 80.6023 77.209 80.5457 77.4913C80.489 77.7735 80.5219 78.0666 80.6397 78.3293C80.7575 78.592 80.9543 78.8111 81.2028 78.9566L82.4613 79.6869H82.4668C82.5438 79.7393 82.6252 79.7848 82.7102 79.8227L94.742 86.801C94.914 86.897 95.065 87.027 95.186 87.182C95.307 87.338 95.395 87.516 95.446 87.707C95.496 87.897 95.507 88.096 95.479 88.291C95.451 88.486 95.384 88.674 95.281 88.842C95.189 89.015 95.062 89.166 94.909 89.288C94.756 89.41 94.58 89.499 94.391 89.55C94.202 89.601 94.005 89.614 93.812 89.586C93.618 89.559 93.432 89.492 93.265 89.39L79.8143 81.5899L78.3981 80.7684C76.8021 79.8307 75.4053 82.2371 77.0096 83.1609L78.4257 83.9824L79.2472 84.4582L91.877 91.783H91.888L93.293 92.598C93.465 92.694 93.616 92.824 93.738 92.979C93.859 93.135 93.947 93.313 93.998 93.504C94.049 93.694 94.06 93.893 94.032 94.088C94.004 94.284 93.937 94.471 93.835 94.64C93.742 94.812 93.616 94.964 93.463 95.085C93.309 95.207 93.133 95.296 92.944 95.347C92.755 95.398 92.558 95.41 92.365 95.382C92.171 95.354 91.985 95.287 91.819 95.185L90.402 94.366L76.9515 86.566L75.5408 85.742C73.9449 84.8177 72.5591 87.21 74.1523 88.137L75.5685 88.956L89.019 96.756C89.191 96.851 89.342 96.98 89.463 97.135C89.584 97.289 89.672 97.467 89.723 97.657C89.773 97.847 89.785 98.045 89.757 98.239C89.73 98.434 89.663 98.621 89.561 98.789C89.469 98.961 89.342 99.113 89.189 99.234C89.036 99.356 88.86 99.445 88.671 99.496C88.482 99.547 88.285 99.559 88.091 99.531C87.898 99.503 87.712 99.436 87.545 99.334L84.71 97.693L82.0906 96.169L69.8485 89.072C68.2525 88.145 66.8613 90.538 68.46 91.465L71.2896 93.108L83.327 100.086C83.4992 100.182 83.6502 100.312 83.7711 100.467C83.892 100.623 83.9803 100.801 84.0306 100.992C84.081 101.182 84.0924 101.381 84.0641 101.576C84.0359 101.771 83.9687 101.959 83.8664 102.127C83.774 102.299 83.6474 102.451 83.4944 102.572C83.3414 102.693 83.1652 102.782 82.9766 102.833C82.788 102.884 82.591 102.895 82.3978 102.867C82.2045 102.839 82.019 102.772 81.8528 102.669L67.8487 94.554H67.8321L62.5879 91.517C62.303 91.354 62.0679 91.143 61.8079 90.955C61.6219 90.649 61.3245 90.427 60.9781 90.336C59.3463 88.861 58.2719 86.87 57.9354 84.6965C57.5989 82.523 58.0209 80.2999 59.1304 78.4009L62.4828 72.562C63.2501 71.2024 64.3441 70.0552 65.6657 69.2241C66.9874 68.3931 68.4953 67.9014 70.0532 67.7989ZM44.1279 76.8271C43.7657 76.8235 43.4125 76.9395 43.1229 77.157C42.8334 77.3745 42.6237 77.6813 42.5263 78.0301C42.4289 78.379 42.4493 78.7502 42.5844 79.0863C42.7194 79.4223 42.9615 79.7044 43.2732 79.8889C43.4591 79.9963 43.6643 80.0661 43.8772 80.0941C44.0901 80.1221 44.3065 80.1077 44.5138 80.0519C44.7212 79.9962 44.9155 79.9003 45.0856 79.7693C45.2558 79.6383 45.3984 79.4751 45.5053 79.2889C45.6462 79.0424 45.721 78.7635 45.7223 78.4795C45.7236 78.1956 45.6514 77.916 45.5127 77.6682C45.3741 77.4204 45.1737 77.2129 44.931 77.0655C44.6883 76.9181 44.4117 76.836 44.1279 76.8271ZM110.868 76.8271C110.584 76.836 110.307 76.9181 110.064 77.0655C109.822 77.2129 109.621 77.4204 109.483 77.6682C109.344 77.916 109.272 78.1956 109.273 78.4795C109.275 78.7635 109.349 79.0424 109.49 79.2889C109.597 79.4747 109.74 79.6376 109.91 79.7683C110.079 79.8991 110.273 79.9952 110.481 80.0509C110.688 80.1067 110.904 80.1209 111.116 80.0931C111.329 80.0654 111.534 79.9959 111.72 79.8889C112.032 79.7051 112.276 79.4233 112.412 79.087C112.548 78.7506 112.569 78.3787 112.472 78.0291C112.374 77.6796 112.165 77.3719 111.874 77.154C111.584 76.9361 111.23 76.82 110.868 76.8241V76.8271ZM60.9698 93.746C61.0528 93.796 61.1164 93.857 61.1994 93.909L63.3015 95.127C63.2545 95.154 63.213 95.168 63.1715 95.193C63.0049 95.296 62.8191 95.363 62.6254 95.391C62.4317 95.419 62.2343 95.408 62.0454 95.357C61.8565 95.306 61.68 95.216 61.5269 95.095C61.3738 94.973 61.2472 94.821 61.1551 94.648C61.0003 94.374 60.9337 94.059 60.9698 93.746ZM66.0453 96.717L69.0159 98.44L67.4477 99.347C67.2814 99.45 67.0961 99.517 66.9031 99.545C66.71 99.573 66.5133 99.561 66.3248 99.511C66.1364 99.46 65.9602 99.372 65.807 99.251C65.6539 99.13 65.527 98.979 65.434 98.808C65.3318 98.64 65.2646 98.453 65.2364 98.258C65.2082 98.063 65.2196 97.864 65.27 97.674C65.3204 97.484 65.4086 97.306 65.5295 97.15C65.6503 96.995 65.8013 96.865 65.9734 96.77C66.0011 96.742 66.0204 96.739 66.0453 96.717ZM71.7653 100.036L74.7359 101.757L73.1372 102.68C72.971 102.782 72.7857 102.85 72.5926 102.878C72.3996 102.906 72.2028 102.894 72.0144 102.844C71.8259 102.793 71.6498 102.705 71.4966 102.584C71.3435 102.463 71.2165 102.313 71.1236 102.141C71.0219 101.972 70.9553 101.785 70.9277 101.589C70.9001 101.394 70.9121 101.195 70.9629 101.005C71.0137 100.814 71.1024 100.636 71.2237 100.481C71.3449 100.325 71.4962 100.195 71.6685 100.1C71.7017 100.072 71.7349 100.058 71.7653 100.036Z" fill="#EDF1F7"/>
</g>
</g>
<defs>
<filter id="filter0_d_1025_1912" x="-12.3828" y="-14.3828" width="180.766" height="180.766" filterUnits="userSpaceOnUse" color-interpolation-filters="sRGB">
<feFlood flood-opacity="0" result="BackgroundImageFix"/>
<feColorMatrix in="SourceAlpha" type="matrix" values="0 0 0 0 0 0 0 0 0 0 0 0 0 0 0 0 0 0 127 0" result="hardAlpha"/>
<feOffset dy="-2"/>
<feGaussianBlur stdDeviation="12"/>
<feComposite in2="hardAlpha" operator="out"/>
<feColorMatrix type="matrix" values="0 0 0 0 0.890196 0 0 0 0 0.14902 0 0 0 0 0.509804 0 0 0 0.08 0"/>
<feBlend mode="normal" in2="BackgroundImageFix" result="effect1_dropShadow_1025_1912"/>
<feBlend mode="normal" in="SourceGraphic" in2="effect1_dropShadow_1025_1912" result="shape"/>
</filter>
<filter id="filter1_d_1025_1912" x="15.2734" y="33.416" width="150.302" height="129.12" filterUnits="userSpaceOnUse" color-interpolation-filters="sRGB">
<feFlood flood-opacity="0" result="BackgroundImageFix"/>
<feColorMatrix in="SourceAlpha" type="matrix" values="0 0 0 0 0 0 0 0 0 0 0 0 0 0 0 0 0 0 127 0" result="hardAlpha"/>
<feOffset dy="-2"/>
<feGaussianBlur stdDeviation="12"/>
<feComposite in2="hardAlpha" operator="out"/>
<feColorMatrix type="matrix" values="0 0 0 0 0.890196 0 0 0 0 0.14902 0 0 0 0 0.509804 0 0 0 0.08 0"/>
<feBlend mode="normal" in2="BackgroundImageFix" result="effect1_dropShadow_1025_1912"/>
<feBlend mode="normal" in="SourceGraphic" in2="effect1_dropShadow_1025_1912" result="shape"/>
</filter>
<filter id="filter2_d_1025_1912" x="15.2764" y="33.4126" width="124.439" height="91.48" filterUnits="userSpaceOnUse" color-interpolation-filters="sRGB">
<feFlood flood-opacity="0" result="BackgroundImageFix"/>
<feColorMatrix in="SourceAlpha" type="matrix" values="0 0 0 0 0 0 0 0 0 0 0 0 0 0 0 0 0 0 127 0" result="hardAlpha"/>
<feOffset dy="-2"/>
<feGaussianBlur stdDeviation="12"/>
<feComposite in2="hardAlpha" operator="out"/>
<feColorMatrix type="matrix" values="0 0 0 0 0.890196 0 0 0 0 0.14902 0 0 0 0 0.509804 0 0 0 0.08 0"/>
<feBlend mode="normal" in2="BackgroundImageFix" result="effect1_dropShadow_1025_1912"/>
<feBlend mode="normal" in="SourceGraphic" in2="effect1_dropShadow_1025_1912" result="shape"/>
</filter>
<clipPath id="clip0_1025_1912">
<rect width="156" height="156" fill="white"/>
</clipPath>
</defs>
</svg>
