<svg width="156" height="156" viewBox="0 0 156 156" fill="none" xmlns="http://www.w3.org/2000/svg">
<g id="Frame" clip-path="url(#clip0_1025_1904)">
<path id="Vector" d="M0 8C0 3.5817 3.5817 0 8 0H148C152.418 0 156 3.5817 156 8V148C156 152.418 152.418 156 148 156H8C3.5817 156 0 152.418 0 148V8Z" fill="#101426"/>
<g id="Group" filter="url(#filter0_d_1025_1904)">
<path id="Vector_2" d="M78.0002 144.383C114.662 144.383 144.383 114.662 144.383 78.0002C144.383 41.3379 114.662 11.6172 78.0002 11.6172C41.3379 11.6172 11.6172 41.3379 11.6172 78.0002C11.6172 114.662 41.3379 144.383 78.0002 144.383Z" fill="#151A30"/>
</g>
<g id="Group_2" filter="url(#filter1_d_1025_1904)">
<path id="Vector_3" fill-rule="evenodd" clip-rule="evenodd" d="M80.4609 144.291C81.2068 144.278 81.9525 144.252 82.6975 144.214C84.9034 144.058 87.1 143.792 89.28 143.417C91.461 143.039 93.622 142.552 95.755 141.957C97.888 141.368 99.991 140.673 102.056 139.874C104.117 139.071 106.136 138.166 108.107 137.162C110.079 136.157 112 135.055 113.862 133.858C115.724 132.664 117.525 131.377 119.259 130.003C120.994 128.627 122.659 127.164 124.248 125.622C125.836 124.079 127.346 122.459 128.772 120.766C130.198 119.072 131.537 117.308 132.786 115.48C134.037 113.654 135.196 111.765 136.258 109.823C137.321 107.881 138.285 105.887 139.149 103.848C140.009 101.811 140.768 99.731 141.421 97.618C142.073 95.502 142.618 93.355 143.055 91.184C143.498 89.015 143.832 86.825 144.056 84.6226C144.275 82.4217 144.384 80.2113 144.383 77.9996C144.382 76.4321 144.326 74.8652 144.214 73.3017C144.058 71.0958 143.793 68.899 143.418 66.7196C143.407 66.677 143.397 66.6345 143.387 66.5919L128.318 51.5179C128.622 51.1412 128.813 50.686 128.868 50.2051C128.923 49.7243 128.84 49.2376 128.629 48.802C128.418 48.3663 128.088 47.9996 127.677 47.7445C127.265 47.4894 126.79 47.3565 126.306 47.3613C125.729 47.3661 125.172 47.5659 124.723 47.9281L114.561 55.8481L103.516 44.8081C103.516 44.4685 103.449 44.1322 103.317 43.8191C103.186 43.506 102.993 43.2222 102.75 42.9844C102.508 42.7467 102.22 42.5597 101.905 42.4344C101.589 42.3091 101.252 42.2481 100.912 42.2549C92.604 42.4336 84.1171 42.4285 75.5843 42.3826C67.0413 42.3417 58.4524 42.2549 49.9145 42.2549C49.2374 42.2549 48.588 42.5239 48.1091 43.0027C47.6303 43.4815 47.3613 44.1309 47.3613 44.8081V111.191C47.3613 111.868 47.6303 112.518 48.1091 112.996C48.588 113.475 49.2374 113.744 49.9145 113.744L80.4609 144.291Z" fill="#222B45"/>
</g>
<g id="Group_3" filter="url(#filter2_d_1025_1904)">
<path id="Vector_4" fill-rule="evenodd" clip-rule="evenodd" d="M49.9145 42.2549C49.2374 42.2549 48.588 42.5239 48.1091 43.0027C47.6303 43.4815 47.3613 44.1309 47.3613 44.8081V111.191C47.3613 111.868 47.6303 112.518 48.1091 112.996C48.588 113.475 49.2374 113.744 49.9145 113.744H100.978C101.654 113.742 102.301 113.471 102.777 112.993C103.254 112.514 103.521 111.866 103.521 111.191V88.212H98.425V108.638H52.4677V47.3613C67.7869 47.4124 83.3 47.6166 98.425 47.3613V52.8966H103.542L103.521 50.3434V44.8081C103.521 44.4685 103.454 44.1322 103.322 43.8191C103.191 43.5059 102.998 43.2222 102.756 42.9844C102.513 42.7467 102.226 42.5597 101.91 42.4344C101.594 42.3091 101.257 42.2481 100.917 42.2549C84.2958 42.6124 67.0005 42.2549 49.9145 42.2549ZM126.306 47.3613C125.729 47.3661 125.172 47.5659 124.723 47.9281L80.9818 81.9826L67.1945 65.9281C66.9759 65.6729 66.7092 65.4633 66.4096 65.3113C66.11 65.1592 65.7833 65.0676 65.4483 65.0418C65.1133 65.0159 64.7765 65.0563 64.4571 65.1607C64.1377 65.265 63.842 65.4312 63.5869 65.6498C63.0715 66.0913 62.7527 66.7194 62.7005 67.396C62.6483 68.0726 62.8671 68.7422 63.3086 69.2575L80.2617 88.994L127.853 51.9621C128.283 51.6401 128.6 51.1909 128.759 50.6784C128.919 50.1659 128.913 49.6162 128.742 49.1073C128.571 48.5985 128.244 48.1564 127.808 47.8438C127.372 47.5313 126.848 47.3642 126.311 47.3664L126.306 47.3613Z" fill="#E4E9F2"/>
</g>
</g>
<defs>
<filter id="filter0_d_1025_1904" x="-12.3828" y="-14.3828" width="180.766" height="180.766" filterUnits="userSpaceOnUse" color-interpolation-filters="sRGB">
<feFlood flood-opacity="0" result="BackgroundImageFix"/>
<feColorMatrix in="SourceAlpha" type="matrix" values="0 0 0 0 0 0 0 0 0 0 0 0 0 0 0 0 0 0 127 0" result="hardAlpha"/>
<feOffset dy="-2"/>
<feGaussianBlur stdDeviation="12"/>
<feComposite in2="hardAlpha" operator="out"/>
<feColorMatrix type="matrix" values="0 0 0 0 0.890196 0 0 0 0 0.14902 0 0 0 0 0.509804 0 0 0 0.08 0"/>
<feBlend mode="normal" in2="BackgroundImageFix" result="effect1_dropShadow_1025_1904"/>
<feBlend mode="normal" in="SourceGraphic" in2="effect1_dropShadow_1025_1904" result="shape"/>
</filter>
<filter id="filter1_d_1025_1904" x="23.3613" y="16.2544" width="145.021" height="150.037" filterUnits="userSpaceOnUse" color-interpolation-filters="sRGB">
<feFlood flood-opacity="0" result="BackgroundImageFix"/>
<feColorMatrix in="SourceAlpha" type="matrix" values="0 0 0 0 0 0 0 0 0 0 0 0 0 0 0 0 0 0 127 0" result="hardAlpha"/>
<feOffset dy="-2"/>
<feGaussianBlur stdDeviation="12"/>
<feComposite in2="hardAlpha" operator="out"/>
<feColorMatrix type="matrix" values="0 0 0 0 0.890196 0 0 0 0 0.14902 0 0 0 0 0.509804 0 0 0 0.08 0"/>
<feBlend mode="normal" in2="BackgroundImageFix" result="effect1_dropShadow_1025_1904"/>
<feBlend mode="normal" in="SourceGraphic" in2="effect1_dropShadow_1025_1904" result="shape"/>
</filter>
<filter id="filter2_d_1025_1904" x="23.3613" y="16.2544" width="129.514" height="119.49" filterUnits="userSpaceOnUse" color-interpolation-filters="sRGB">
<feFlood flood-opacity="0" result="BackgroundImageFix"/>
<feColorMatrix in="SourceAlpha" type="matrix" values="0 0 0 0 0 0 0 0 0 0 0 0 0 0 0 0 0 0 127 0" result="hardAlpha"/>
<feOffset dy="-2"/>
<feGaussianBlur stdDeviation="12"/>
<feComposite in2="hardAlpha" operator="out"/>
<feColorMatrix type="matrix" values="0 0 0 0 0.890196 0 0 0 0 0.14902 0 0 0 0 0.509804 0 0 0 0.08 0"/>
<feBlend mode="normal" in2="BackgroundImageFix" result="effect1_dropShadow_1025_1904"/>
<feBlend mode="normal" in="SourceGraphic" in2="effect1_dropShadow_1025_1904" result="shape"/>
</filter>
<clipPath id="clip0_1025_1904">
<rect width="156" height="156" fill="white"/>
</clipPath>
</defs>
</svg>
