<svg width="120" height="48" viewBox="0 0 120 48" fill="none" xmlns="http://www.w3.org/2000/svg">
<g id="Group 1">
<path id="Vector" d="M42.6409 30.5048C40.1964 22.7525 37.8109 15.1428 35.3811 7.54487C35.1183 6.72572 34.6755 5.92735 34.1588 5.23879C32.9188 3.58862 31.5844 2.01265 30.058 0.122079C31.2537 0.122079 32.1512 0.122079 33.0458 0.122079C36.193 0.119111 39.3432 0.157695 42.4904 0.0834963C43.5621 0.0597529 44.0197 0.398097 44.3267 1.44578C45.673 6.03123 47.1167 10.587 48.5279 15.1517C48.6726 15.6206 48.8527 16.0777 49.1037 16.7929C50.881 14.3949 52.552 12.157 54.2053 9.90734C56.3665 6.96613 58.5069 4.01304 60.668 1.07182C61.66 -0.278591 64.9076 -0.379501 65.9941 0.920452C67.2577 2.4341 68.5361 3.9418 69.6905 5.53558C70.0329 6.01045 70.2101 6.82663 70.0743 7.39351C68.3117 14.7273 66.4931 22.0432 64.639 29.3532C64.5268 29.7925 64.0072 30.4454 63.6617 30.4543C60.4732 30.5404 57.2817 30.5048 53.9012 30.5048C54.7456 26.9967 55.5546 23.64 56.3606 20.2832C56.272 20.2417 56.1864 20.1972 56.0978 20.1556C54.3087 22.6071 52.3394 24.9518 50.7776 27.5428C49.3664 29.8815 47.6629 31.0153 44.9408 30.5226C44.2293 30.395 43.4765 30.5018 42.638 30.5018L42.6409 30.5048Z" fill="white"/>
<path id="Vector_2" d="M68.0401 0.160693H84.8006C84.1541 2.87932 83.537 5.48516 82.8078 8.55103C83.8942 7.49742 84.6855 6.76137 85.4413 5.98971C87.0946 4.30096 88.7095 2.56768 90.3924 0.908612C90.7762 0.528717 91.3696 0.145854 91.8715 0.13695C95.4586 0.0746234 99.0487 0.110239 102.639 0.12211C102.822 0.12211 103.005 0.205212 103.457 0.315026C98.4671 5.20321 93.6105 9.9608 88.6771 14.7926C92.3291 19.9657 95.931 25.0616 99.6864 30.3772H81.6623C82.9229 28.8428 84.0832 27.43 85.3114 25.9342C83.7112 23.5153 82.1228 21.1113 80.3455 18.4224C79.6694 21.1054 79.0671 23.4678 78.4796 25.8303C78.1696 27.0709 77.9393 28.3382 77.5437 29.5521C77.4168 29.9379 76.8853 30.4514 76.5281 30.4573C73.3868 30.5285 70.2455 30.4989 66.8444 30.4989C67.3404 28.4184 67.7862 26.4833 68.2644 24.5571C69.7111 18.737 71.1902 12.9228 72.5837 7.09081C72.7137 6.54768 72.504 5.75821 72.1645 5.29818C70.9157 3.60646 69.5428 2.00971 68.043 0.157725L68.0401 0.160693Z" fill="white"/>
<path id="Vector_3" d="M15.8777 12.1333H25.898C25.3873 14.2317 24.9031 16.2142 24.3894 18.3215H14.2923C13.7875 20.307 13.3092 22.1916 12.7778 24.287H25.8419C25.219 26.3853 24.6905 28.2522 24.0882 30.0952C24.0203 30.3 23.545 30.49 23.2586 30.487C15.8895 30.4247 8.52045 30.3356 1.15136 30.2466C1.06869 30.2466 0.988977 30.1546 0.802979 30.0389C1.8304 25.9342 2.86963 21.7939 3.90296 17.6507C4.57019 14.9796 5.19609 12.2995 5.92532 9.64918C6.04637 9.21289 6.59256 8.58369 6.9557 8.57479C10.0911 8.48872 13.2295 8.52433 16.5686 8.52433C16.3324 9.76493 16.1228 10.8482 15.8777 12.1333Z" fill="white"/>
<path id="Vector_4" d="M117.353 8.31657C116.358 12.3915 115.414 16.3122 114.442 20.2239C113.695 23.2363 112.886 26.231 112.175 29.2494C111.962 30.1516 111.64 30.5523 110.634 30.5286C107.643 30.4573 104.649 30.5018 101.425 30.5018C103.262 22.99 105.054 15.6622 106.849 8.3136H117.353V8.31657Z" fill="white"/>
<path id="Vector_5" d="M32.6473 6.92462C34.3567 12.3619 36.1163 17.7872 37.7254 23.2542C37.9763 24.103 37.6279 25.1715 37.4124 26.1034C37.0788 27.5339 37.0316 29.4542 36.0986 30.2021C35.1745 30.9411 33.3027 30.5078 31.8472 30.5345C30.0965 30.5671 28.3457 30.5434 26.468 30.5434C28.455 22.5597 30.3976 14.7481 32.3403 6.93649C32.4406 6.93353 32.544 6.93056 32.6444 6.92759L32.6473 6.92462Z" fill="white"/>
<path id="Vector_6" d="M31.0353 6.20635C28.632 6.20635 26.5801 6.20635 24.5283 6.20635C19.0221 6.20635 13.5189 6.18261 8.01275 6.22713C7.06799 6.23603 6.47457 5.93924 5.94019 5.17054C4.81534 3.55599 3.59897 2.00673 2.26746 0.223004C2.93174 0.160678 3.41888 0.0775757 3.90897 0.0775757C10.9356 0.0835115 17.9652 0.0775757 24.9918 0.148806C25.6118 0.154742 26.3971 0.525733 26.8104 0.991698C28.2128 2.56767 29.4823 4.26236 31.0353 6.20635Z" fill="white"/>
<path id="Vector_7" d="M51.6427 45.6115H53.8186C54.3766 43.3173 54.9789 41.0439 55.466 38.7467C55.7258 37.5091 56.1952 36.9541 57.5976 37.0194C60.4909 37.1559 63.399 37.1826 66.2894 37.0134C68.0165 36.9125 69.0764 37.4942 69.8676 39.3076C68.666 39.3076 67.5825 39.3076 66.499 39.3076C65.7609 39.3076 65.0258 39.2958 64.2877 39.3106C62.5664 39.3492 60.7744 39.5777 59.7204 37.4645C59.0945 39.8448 58.4449 42.2221 57.8515 44.6113C57.0337 47.8968 57.0514 47.8998 53.7271 47.8938C52.8916 47.8938 52.056 47.8938 51.2205 47.8938C48.652 47.8909 47.5921 46.4841 48.2445 43.9495C48.3922 43.3767 48.4984 42.792 48.6697 42.2281C49.21 40.4562 49.8181 38.6873 47.3824 37.1767H53.671C53.0037 39.9457 52.3424 42.697 51.6427 45.6115Z" fill="white"/>
<path id="Vector_8" d="M85.9403 38.0107C85.3085 39.4264 84.3076 39.6786 81.7656 39.088C81.8955 38.4796 82.0254 37.8682 82.1996 37.0609C82.9554 37.0609 83.726 37.0609 84.4995 37.0609C87.5493 37.0609 90.5961 37.0609 93.6459 37.0609C95.9281 37.0609 97.1031 38.5597 96.554 40.756C96.0403 42.8128 95.5768 44.8814 94.9774 46.9115C94.8564 47.3181 94.2334 47.8256 93.8172 47.8464C91.904 47.9443 89.985 47.9235 88.066 47.876C86.6961 47.8434 85.4915 46.125 85.8163 44.7775C86.1381 43.436 86.392 42.0737 86.7964 40.759C87.1419 39.64 87.0828 38.7348 85.9432 38.0077L85.9403 38.0107ZM89.3148 45.8519C90.2419 45.6175 91.4287 45.6145 91.5616 45.2376C92.2229 43.3678 92.6037 41.4 93.1293 39.2869C92.0841 39.4531 91.0567 38.7408 90.7172 40.109C90.2655 41.9105 89.8344 43.718 89.3148 45.8519Z" fill="white"/>
<path id="Vector_9" d="M34.5691 47.9057C35.3219 46.2021 36.3287 45.4305 38.0676 45.6382C39.3283 45.7896 40.6185 45.6679 42.0947 45.6679C42.6202 43.6408 43.1516 41.59 43.7007 39.4649C42.3013 39.1295 41.2208 39.0613 41.0997 40.8213C41.082 41.0646 41.0111 41.305 40.9521 41.5454C40.4089 43.7397 38.9199 44.7399 36.4852 44.546C36.7125 43.5488 36.9192 42.5694 37.1613 41.5989C37.5077 40.2 37.1445 38.6873 36.0718 37.0609C38.6906 37.0609 41.1617 37.0401 43.6328 37.0728C44.5599 37.0846 45.4869 37.1974 46.4081 37.3161C47.3764 37.4408 47.7927 38.0403 47.5654 38.9871C46.9926 41.3763 46.411 43.7654 45.7762 46.1368C45.3777 47.6267 44.0816 47.8493 42.8446 47.882C40.1491 47.9502 37.4506 47.9027 34.5691 47.9027V47.9057Z" fill="white"/>
<path id="Vector_10" d="M23.7725 47.6714C20.7552 48.4638 18.538 47.8672 17.3777 44.7034C16.5707 47.0481 15.0237 48.0602 12.7366 47.7396C13.33 45.3148 13.9205 42.9049 14.5287 40.4148H18.2339C18.1778 40.8807 18.1276 41.2962 18.0361 42.0501C19.1432 41.1716 20.7699 41.3111 20.5987 39.3077C19.3233 39.3077 18.0981 39.2098 16.8935 39.3315C15.1575 39.5066 14.0061 38.8032 13.1647 37.0818C16.3709 37.0818 19.4827 37.0343 22.5945 37.1144C23.43 37.1352 24.5637 39.2365 24.4309 40.1061C24.1533 41.9551 23.4418 43.4153 21.0327 43.6053C22.0424 45.1041 22.875 46.3358 23.7754 47.6714H23.7725Z" fill="white"/>
<path id="Vector_11" d="M24.2832 37.064C27.4983 37.064 30.4773 37.0343 33.4532 37.0788C34.5545 37.0966 35.8565 38.9842 35.5907 40.0823C35.0357 42.3736 34.4954 44.6678 33.837 46.9293C33.7189 47.33 33.0812 47.8227 32.6561 47.8464C30.7991 47.9533 28.9302 47.9325 27.0673 47.9058C25.5527 47.885 24.3127 46.1577 24.6729 44.65C24.9002 43.6943 25.1335 42.7416 25.352 41.7859C25.7279 40.1417 25.3716 38.5677 24.2832 37.064ZM31.9298 39.554C31.8294 39.4086 31.732 39.2632 31.6316 39.1178C30.9792 39.3582 29.8956 39.4442 29.7451 39.8657C29.0956 41.691 28.7176 43.6142 28.2157 45.6027H30.4241C30.9349 43.5459 31.4309 41.5485 31.9298 39.5511V39.554Z" fill="white"/>
<path id="Vector_12" d="M6.72843 40.3256V41.8927C7.80604 41.2041 9.33241 41.2872 9.22317 39.3106C7.88575 39.3106 6.51586 39.183 5.17844 39.3432C3.47198 39.548 2.67189 38.6844 2.0578 37.0757C5.1253 37.0757 8.09537 37.0223 11.0566 37.1054C11.9925 37.1321 13.1055 39.1889 12.9727 40.1535C12.7571 41.7235 12.149 42.8751 10.5193 43.433C9.27631 43.8604 8.1308 44.5757 6.93214 45.1396C6.06415 45.5462 5.31425 45.9855 5.1932 47.1044C5.16073 47.3923 4.64406 47.8315 4.33111 47.8493C2.93169 47.9295 1.52342 47.8849 0 47.7454C2.11979 46.1695 2.29989 43.7714 2.80179 41.5662C3.02617 40.5838 3.3716 40.2247 4.33702 40.3138C5.06625 40.382 5.80729 40.3286 6.72548 40.3286L6.72843 40.3256Z" fill="white"/>
<path id="Vector_13" d="M101.201 43.163C100.853 44.4927 100.522 45.4513 100.366 46.4396C100.188 47.5675 99.6776 48.0631 98.5174 47.9295C97.8088 47.8494 97.0855 47.9147 96.1938 47.9147C97.0677 44.3621 97.8619 41.038 98.727 37.7347C98.8008 37.4468 99.3204 37.1203 99.657 37.0907C100.628 37.0046 101.611 37.061 102.692 37.061C104.159 40.5839 105.615 44.0831 107.056 47.5437C102.707 49.2711 102.497 45.7184 101.195 43.163H101.201Z" fill="white"/>
<path id="Vector_14" d="M107.442 6.15289C107.858 4.36916 108.201 2.73977 108.641 1.13709C108.747 0.745321 109.166 0.151735 109.453 0.1458C112.68 0.0745693 115.907 0.101281 119.393 0.101281C118.88 2.26193 118.419 4.19109 117.953 6.15289H107.439H107.442Z" fill="white"/>
<path id="Vector_15" d="M61.1197 40.3969H64.8633C64.45 42.145 64.0573 43.8041 63.6263 45.6353H68.4534C67.6001 47.1074 66.8325 48.1758 65.0965 47.9117C64.3762 47.8019 63.6292 47.8968 62.8941 47.8939C60.8363 47.882 59.6435 46.3387 60.1425 44.3353C60.4643 43.0502 60.7802 41.7651 61.1168 40.3939L61.1197 40.3969Z" fill="white"/>
<path id="Vector_16" d="M73.3957 40.388H77.1452C76.5518 42.8959 75.979 45.3088 75.3856 47.8078H70.0034C72.7255 45.852 72.5602 43.0057 73.3957 40.388Z" fill="white"/>
<path id="Vector_17" d="M85.1845 40.3257C84.5793 42.8217 84.042 45.107 83.4427 47.3745C83.3836 47.6031 82.9555 47.8702 82.6898 47.8821C81.3347 47.9325 79.9766 47.9058 78.1609 47.9058C80.4253 45.9499 80.5375 43.4717 81.2107 41.2072C81.3199 40.8392 81.875 40.4266 82.2735 40.3673C83.1327 40.2396 84.0243 40.3287 85.1845 40.3287V40.3257Z" fill="white"/>
<path id="Vector_18" d="M80.192 39.2929C77.4581 39.2929 74.7154 39.4205 71.9992 39.2098C71.2729 39.1534 70.6263 38.0671 69.9443 37.4557C70.0152 37.3251 70.086 37.1975 70.1569 37.0669C72.876 37.0669 75.604 36.9393 78.3084 37.15C79.0642 37.2094 79.7432 38.2571 80.4547 38.8506C80.3662 38.999 80.2805 39.1474 80.192 39.2958V39.2929Z" fill="white"/>
<path id="Vector_19" d="M107.141 45.0595C106.536 43.6112 105.7 42.2103 105.402 40.6996C105.196 39.649 105.656 38.4232 106.002 37.337C106.072 37.1114 106.952 37.1055 107.466 37.0669C108.048 37.0224 108.632 37.058 109.444 37.058C108.765 39.8449 108.121 42.4745 107.478 45.107L107.141 45.0595Z" fill="white"/>
</g>
</svg>
